<mxfile host="app.diagrams.net" modified="2024-06-24T16:33:13.251Z" agent="Mozilla/5.0 (Windows NT 10.0; Win64; x64) AppleWebKit/537.36 (KHTML, like Gecko) Chrome/126.0.0.0 Safari/537.36" etag="7lveMJw_VOeANlzdYU8C" version="24.6.2" type="device">
  <diagram name="Page-1" id="9B4uzzWmn3LJ-X_eK-5A">
    <mxGraphModel dx="1221" dy="680" grid="1" gridSize="10" guides="1" tooltips="1" connect="1" arrows="1" fold="1" page="1" pageScale="1" pageWidth="850" pageHeight="1100" math="0" shadow="0">
      <root>
        <mxCell id="0" />
        <mxCell id="1" parent="0" />
        <mxCell id="xhlpDpGyN-HD5XEs8_ex-57" style="edgeStyle=orthogonalEdgeStyle;rounded=0;orthogonalLoop=1;jettySize=auto;html=1;entryX=0;entryY=0.5;entryDx=0;entryDy=0;" edge="1" parent="1" source="xhlpDpGyN-HD5XEs8_ex-2" target="xhlpDpGyN-HD5XEs8_ex-8">
          <mxGeometry relative="1" as="geometry" />
        </mxCell>
        <mxCell id="xhlpDpGyN-HD5XEs8_ex-2" value="&lt;b&gt;STATE: 3&lt;br&gt;MOTOR: SPEED 3&lt;br&gt;(HIGH)&lt;/b&gt;" style="rounded=0;whiteSpace=wrap;html=1;" vertex="1" parent="1">
          <mxGeometry x="220" y="250" width="120" height="60" as="geometry" />
        </mxCell>
        <mxCell id="xhlpDpGyN-HD5XEs8_ex-52" style="edgeStyle=orthogonalEdgeStyle;rounded=0;orthogonalLoop=1;jettySize=auto;html=1;entryX=0;entryY=0.5;entryDx=0;entryDy=0;" edge="1" parent="1" source="xhlpDpGyN-HD5XEs8_ex-3" target="xhlpDpGyN-HD5XEs8_ex-8">
          <mxGeometry relative="1" as="geometry" />
        </mxCell>
        <mxCell id="xhlpDpGyN-HD5XEs8_ex-3" value="&lt;b&gt;STATE: 2&lt;/b&gt;&lt;div&gt;&lt;b&gt;MOTOR: SPEED 1 (LOW)&lt;/b&gt;&lt;/div&gt;" style="rounded=0;whiteSpace=wrap;html=1;" vertex="1" parent="1">
          <mxGeometry x="220" y="100" width="120" height="60" as="geometry" />
        </mxCell>
        <mxCell id="xhlpDpGyN-HD5XEs8_ex-48" style="edgeStyle=orthogonalEdgeStyle;rounded=0;orthogonalLoop=1;jettySize=auto;html=1;entryX=0;entryY=0.5;entryDx=0;entryDy=0;" edge="1" parent="1" source="xhlpDpGyN-HD5XEs8_ex-4" target="xhlpDpGyN-HD5XEs8_ex-1">
          <mxGeometry relative="1" as="geometry" />
        </mxCell>
        <mxCell id="xhlpDpGyN-HD5XEs8_ex-68" value="C1" style="edgeLabel;html=1;align=center;verticalAlign=middle;resizable=0;points=[];" vertex="1" connectable="0" parent="xhlpDpGyN-HD5XEs8_ex-48">
          <mxGeometry x="0.5204" relative="1" as="geometry">
            <mxPoint as="offset" />
          </mxGeometry>
        </mxCell>
        <mxCell id="xhlpDpGyN-HD5XEs8_ex-51" style="edgeStyle=orthogonalEdgeStyle;rounded=0;orthogonalLoop=1;jettySize=auto;html=1;entryX=0;entryY=0.5;entryDx=0;entryDy=0;" edge="1" parent="1" source="xhlpDpGyN-HD5XEs8_ex-4" target="xhlpDpGyN-HD5XEs8_ex-3">
          <mxGeometry relative="1" as="geometry" />
        </mxCell>
        <mxCell id="xhlpDpGyN-HD5XEs8_ex-69" value="C2" style="edgeLabel;html=1;align=center;verticalAlign=middle;resizable=0;points=[];" vertex="1" connectable="0" parent="xhlpDpGyN-HD5XEs8_ex-51">
          <mxGeometry x="0.6604" relative="1" as="geometry">
            <mxPoint as="offset" />
          </mxGeometry>
        </mxCell>
        <mxCell id="xhlpDpGyN-HD5XEs8_ex-53" style="edgeStyle=orthogonalEdgeStyle;rounded=0;orthogonalLoop=1;jettySize=auto;html=1;entryX=0;entryY=0.5;entryDx=0;entryDy=0;" edge="1" parent="1" source="xhlpDpGyN-HD5XEs8_ex-4" target="xhlpDpGyN-HD5XEs8_ex-27">
          <mxGeometry relative="1" as="geometry" />
        </mxCell>
        <mxCell id="xhlpDpGyN-HD5XEs8_ex-70" value="C3" style="edgeLabel;html=1;align=center;verticalAlign=middle;resizable=0;points=[];" vertex="1" connectable="0" parent="xhlpDpGyN-HD5XEs8_ex-53">
          <mxGeometry x="0.7813" relative="1" as="geometry">
            <mxPoint as="offset" />
          </mxGeometry>
        </mxCell>
        <mxCell id="xhlpDpGyN-HD5XEs8_ex-55" style="edgeStyle=orthogonalEdgeStyle;rounded=0;orthogonalLoop=1;jettySize=auto;html=1;entryX=0;entryY=0.5;entryDx=0;entryDy=0;" edge="1" parent="1" source="xhlpDpGyN-HD5XEs8_ex-4" target="xhlpDpGyN-HD5XEs8_ex-2">
          <mxGeometry relative="1" as="geometry" />
        </mxCell>
        <mxCell id="xhlpDpGyN-HD5XEs8_ex-71" value="C4" style="edgeLabel;html=1;align=center;verticalAlign=middle;resizable=0;points=[];" vertex="1" connectable="0" parent="xhlpDpGyN-HD5XEs8_ex-55">
          <mxGeometry x="0.8511" relative="1" as="geometry">
            <mxPoint as="offset" />
          </mxGeometry>
        </mxCell>
        <mxCell id="xhlpDpGyN-HD5XEs8_ex-56" style="edgeStyle=orthogonalEdgeStyle;rounded=0;orthogonalLoop=1;jettySize=auto;html=1;entryX=0;entryY=0.5;entryDx=0;entryDy=0;" edge="1" parent="1" source="xhlpDpGyN-HD5XEs8_ex-4" target="xhlpDpGyN-HD5XEs8_ex-32">
          <mxGeometry relative="1" as="geometry" />
        </mxCell>
        <mxCell id="xhlpDpGyN-HD5XEs8_ex-72" value="C5" style="edgeLabel;html=1;align=center;verticalAlign=middle;resizable=0;points=[];" vertex="1" connectable="0" parent="xhlpDpGyN-HD5XEs8_ex-56">
          <mxGeometry x="0.8794" relative="1" as="geometry">
            <mxPoint as="offset" />
          </mxGeometry>
        </mxCell>
        <mxCell id="xhlpDpGyN-HD5XEs8_ex-59" style="edgeStyle=orthogonalEdgeStyle;rounded=0;orthogonalLoop=1;jettySize=auto;html=1;entryX=0;entryY=0.5;entryDx=0;entryDy=0;" edge="1" parent="1" source="xhlpDpGyN-HD5XEs8_ex-4" target="xhlpDpGyN-HD5XEs8_ex-37">
          <mxGeometry relative="1" as="geometry" />
        </mxCell>
        <mxCell id="xhlpDpGyN-HD5XEs8_ex-75" value="C6" style="edgeLabel;html=1;align=center;verticalAlign=middle;resizable=0;points=[];" vertex="1" connectable="0" parent="xhlpDpGyN-HD5XEs8_ex-59">
          <mxGeometry x="0.9017" relative="1" as="geometry">
            <mxPoint as="offset" />
          </mxGeometry>
        </mxCell>
        <mxCell id="xhlpDpGyN-HD5XEs8_ex-76" style="edgeStyle=orthogonalEdgeStyle;rounded=0;orthogonalLoop=1;jettySize=auto;html=1;entryX=0;entryY=0.5;entryDx=0;entryDy=0;" edge="1" parent="1" source="xhlpDpGyN-HD5XEs8_ex-4" target="xhlpDpGyN-HD5XEs8_ex-41">
          <mxGeometry relative="1" as="geometry" />
        </mxCell>
        <mxCell id="xhlpDpGyN-HD5XEs8_ex-77" value="C0" style="edgeLabel;html=1;align=center;verticalAlign=middle;resizable=0;points=[];" vertex="1" connectable="0" parent="xhlpDpGyN-HD5XEs8_ex-76">
          <mxGeometry x="0.9147" y="1" relative="1" as="geometry">
            <mxPoint as="offset" />
          </mxGeometry>
        </mxCell>
        <mxCell id="xhlpDpGyN-HD5XEs8_ex-4" value="&lt;b&gt;Button&lt;/b&gt;" style="shape=ext;double=1;rounded=1;whiteSpace=wrap;html=1;" vertex="1" parent="1">
          <mxGeometry x="40" y="40" width="110" height="80" as="geometry" />
        </mxCell>
        <mxCell id="xhlpDpGyN-HD5XEs8_ex-8" value="&lt;b&gt;MOTOR&lt;/b&gt;" style="rounded=1;whiteSpace=wrap;html=1;" vertex="1" parent="1">
          <mxGeometry x="540" y="200" width="120" height="60" as="geometry" />
        </mxCell>
        <mxCell id="xhlpDpGyN-HD5XEs8_ex-9" value="&lt;b&gt;LED ARRAY&lt;/b&gt;" style="rounded=1;whiteSpace=wrap;html=1;" vertex="1" parent="1">
          <mxGeometry x="540" y="280" width="120" height="60" as="geometry" />
        </mxCell>
        <mxCell id="xhlpDpGyN-HD5XEs8_ex-78" style="edgeStyle=orthogonalEdgeStyle;rounded=0;orthogonalLoop=1;jettySize=auto;html=1;entryX=0;entryY=0.5;entryDx=0;entryDy=0;" edge="1" parent="1" source="xhlpDpGyN-HD5XEs8_ex-1" target="xhlpDpGyN-HD5XEs8_ex-9">
          <mxGeometry relative="1" as="geometry">
            <Array as="points">
              <mxPoint x="400" y="60" />
              <mxPoint x="400" y="420" />
              <mxPoint x="480" y="420" />
              <mxPoint x="480" y="310" />
            </Array>
          </mxGeometry>
        </mxCell>
        <mxCell id="xhlpDpGyN-HD5XEs8_ex-1" value="&lt;b&gt;STATE: 1&lt;br&gt;LED: RED&lt;/b&gt;" style="rounded=0;whiteSpace=wrap;html=1;" vertex="1" parent="1">
          <mxGeometry x="220" y="30" width="120" height="60" as="geometry" />
        </mxCell>
        <mxCell id="xhlpDpGyN-HD5XEs8_ex-54" style="edgeStyle=orthogonalEdgeStyle;rounded=0;orthogonalLoop=1;jettySize=auto;html=1;entryX=0;entryY=0.5;entryDx=0;entryDy=0;" edge="1" parent="1" source="xhlpDpGyN-HD5XEs8_ex-27" target="xhlpDpGyN-HD5XEs8_ex-8">
          <mxGeometry relative="1" as="geometry" />
        </mxCell>
        <mxCell id="xhlpDpGyN-HD5XEs8_ex-27" value="&lt;b&gt;STATE: 3&lt;br&gt;MOTOR: SPEED 2&lt;br&gt;(MEDIUM)&lt;/b&gt;" style="rounded=0;whiteSpace=wrap;html=1;" vertex="1" parent="1">
          <mxGeometry x="220" y="170" width="120" height="60" as="geometry" />
        </mxCell>
        <mxCell id="xhlpDpGyN-HD5XEs8_ex-58" style="edgeStyle=orthogonalEdgeStyle;rounded=0;orthogonalLoop=1;jettySize=auto;html=1;entryX=0;entryY=0.5;entryDx=0;entryDy=0;" edge="1" parent="1" source="xhlpDpGyN-HD5XEs8_ex-32" target="xhlpDpGyN-HD5XEs8_ex-8">
          <mxGeometry relative="1" as="geometry" />
        </mxCell>
        <mxCell id="xhlpDpGyN-HD5XEs8_ex-32" value="&lt;b&gt;STATE: 4&lt;br&gt;MOTOR: SPEED 4&lt;br&gt;(PULSATING)&lt;/b&gt;" style="rounded=0;whiteSpace=wrap;html=1;" vertex="1" parent="1">
          <mxGeometry x="220" y="320" width="120" height="60" as="geometry" />
        </mxCell>
        <mxCell id="xhlpDpGyN-HD5XEs8_ex-37" value="&lt;b&gt;STATE: OFF&lt;/b&gt;" style="rounded=0;whiteSpace=wrap;html=1;" vertex="1" parent="1">
          <mxGeometry x="220" y="390" width="120" height="60" as="geometry" />
        </mxCell>
        <mxCell id="xhlpDpGyN-HD5XEs8_ex-41" value="&lt;b&gt;LONG PRESS (&amp;gt;2)&lt;br&gt;STATE: OFF&lt;/b&gt;" style="rounded=0;whiteSpace=wrap;html=1;" vertex="1" parent="1">
          <mxGeometry x="220" y="460" width="120" height="60" as="geometry" />
        </mxCell>
        <mxCell id="xhlpDpGyN-HD5XEs8_ex-82" style="edgeStyle=orthogonalEdgeStyle;rounded=0;orthogonalLoop=1;jettySize=auto;html=1;entryX=0;entryY=0.5;entryDx=0;entryDy=0;" edge="1" parent="1" source="xhlpDpGyN-HD5XEs8_ex-45" target="xhlpDpGyN-HD5XEs8_ex-79">
          <mxGeometry relative="1" as="geometry" />
        </mxCell>
        <mxCell id="xhlpDpGyN-HD5XEs8_ex-45" value="&lt;b&gt;Battery&lt;/b&gt;" style="shape=ext;double=1;rounded=1;whiteSpace=wrap;html=1;" vertex="1" parent="1">
          <mxGeometry x="40" y="600" width="110" height="80" as="geometry" />
        </mxCell>
        <mxCell id="xhlpDpGyN-HD5XEs8_ex-83" style="edgeStyle=orthogonalEdgeStyle;rounded=0;orthogonalLoop=1;jettySize=auto;html=1;entryX=0.5;entryY=1;entryDx=0;entryDy=0;" edge="1" parent="1" source="xhlpDpGyN-HD5XEs8_ex-79" target="xhlpDpGyN-HD5XEs8_ex-9">
          <mxGeometry relative="1" as="geometry" />
        </mxCell>
        <mxCell id="xhlpDpGyN-HD5XEs8_ex-79" value="&lt;b style=&quot;&quot;&gt;&lt;font style=&quot;font-size: 12px;&quot;&gt;LEVEL: LOWEST&amp;nbsp;&lt;/font&gt;&lt;/b&gt;&lt;b style=&quot;background-color: initial;&quot;&gt;STATE: BLINK RED&lt;/b&gt;" style="rounded=0;whiteSpace=wrap;html=1;" vertex="1" parent="1">
          <mxGeometry x="220" y="550" width="120" height="60" as="geometry" />
        </mxCell>
        <mxCell id="xhlpDpGyN-HD5XEs8_ex-80" value="&lt;b&gt;LEVEL: LOW&lt;/b&gt;&lt;div&gt;&lt;b&gt;STATE: STEADY RED&lt;/b&gt;&lt;/div&gt;" style="rounded=0;whiteSpace=wrap;html=1;" vertex="1" parent="1">
          <mxGeometry x="220" y="630" width="120" height="60" as="geometry" />
        </mxCell>
        <mxCell id="xhlpDpGyN-HD5XEs8_ex-81" value="&lt;b&gt;LEVEL: LOWEST (NEAR DEAD)&lt;/b&gt;&lt;div&gt;&lt;b&gt;STATE: BLINK RED&lt;/b&gt;&lt;/div&gt;" style="rounded=0;whiteSpace=wrap;html=1;" vertex="1" parent="1">
          <mxGeometry x="220" y="710" width="120" height="60" as="geometry" />
        </mxCell>
      </root>
    </mxGraphModel>
  </diagram>
</mxfile>
